<svg xmlns="http://www.w3.org/2000/svg" viewBox="0 0 36 36" id="hackerrank"><path fill="#EFEFEF" d="M8.377 4.167c6.917 0 11.667-3.583 15-3.583S33.71 2.5 33.71 17.833s-9.417 17.583-13.083 17.583C3.46 35.417-3.873 4.167 8.377 4.167z"></path><path fill="#A4AFC1" d="m6.972 8.564 1.415-1.415.707.707-1.415 1.415zM2.906 12.63l1.415-1.415.707.707-1.415 1.415zM2.906 7.679l.707-.707 1.414 1.414-.707.707zM27.25 31.5c-.827 0-1.5-.673-1.5-1.5s.673-1.5 1.5-1.5 1.5.673 1.5 1.5-.673 1.5-1.5 1.5zm0-2a.5.5 0 1 0 .002 1.002.5.5 0 0 0-.002-1.002z"></path><path fill="#2FDF84" d="M17.999 6.75c-1.279 0-9.135 4.517-9.771 5.625-.636 1.108-.64 10.143 0 11.25.639 1.107 8.493 5.625 9.771 5.625 1.277 0 9.132-4.522 9.772-5.625.639-1.103.639-10.153 0-11.25-.64-1.097-8.493-5.625-9.772-5.625z"></path><path fill="#00B871" d="M10.478 23.625c-.64-1.107-.636-10.142 0-11.25.53-.925 6.075-4.213 8.645-5.281-.509-.211-.913-.344-1.124-.344-1.279 0-9.135 4.517-9.771 5.625s-.64 10.143 0 11.25c.639 1.107 8.493 5.625 9.771 5.625.212 0 .615-.133 1.125-.345-2.568-1.067-8.112-4.356-8.646-5.28z"></path><path d="M17.999 30c-1.56 0-9.643-4.654-10.42-6-.774-1.342-.775-10.649-.001-11.999C8.351 10.656 16.434 6 17.999 6c1.553 0 9.635 4.652 10.419 5.997.783 1.343.784 10.655.001 12.004-.78 1.346-8.863 5.999-10.42 5.999zm0-22.5c-1.176.092-8.486 4.3-9.124 5.254-.501 1.021-.501 9.472.007 10.501.633.943 7.973 5.168 9.125 5.244 1.134-.076 8.476-4.302 9.119-5.258.5-1.018.501-9.465-.008-10.497-.638-.939-7.949-5.151-9.119-5.244z"></path><path d="M20.507 18.75h-5.016a.749.749 0 0 1-.75-.768c.009-.385.011-.938.013-1.549.003-1.36.008-2.901.088-3.754l1.494.142c-.074.784-.079 2.355-.082 3.617l-.004.812h3.509a108.553 108.553 0 0 0-.06-3.476l1.5-.049c.045 1.382.064 2.786.058 4.172V18a.75.75 0 0 1-.75.75z"></path><path d="M21.244 23.25h-1.5c0-1.235.028-2.959.045-3.794-.007-.09-.021-.256-.027-.706l-3.521.021a56.811 56.811 0 0 0 .064 3.441l-1.498.076a58.76 58.76 0 0 1-.066-3.521V18a.75.75 0 0 1 .75-.75h5.016a.75.75 0 0 1 .75.75c0 .964.019 1.227.026 1.338.002.023.006.125.006.148a215.86 215.86 0 0 0-.045 3.764z"></path><path d="M20.505 25.998c-.771 0-2.346-2.133-2.442-2.381-.113-.291-.039-.687.193-.895.358-.302 4.152-.305 4.489-.002.23.208.306.603.193.893-.096.248-1.658 2.385-2.429 2.385h-.004zm-.255-1.997c.089.095.176.186.256.268.08-.082.166-.173.254-.268a43.35 43.35 0 0 0-.51 0zM15.479 13.507c-1.031 0-2.056-.075-2.224-.227-.23-.208-.306-.603-.193-.893.096-.248 1.658-2.385 2.429-2.385h.005c.771 0 2.346 2.133 2.442 2.381.113.291.039.687-.193.895-.181.152-1.227.229-2.266.229zM15.24 12h.51a18.508 18.508 0 0 0-.256-.268c-.08.081-.166.172-.254.268z"></path></svg>